<svg xmlns="http://www.w3.org/2000/svg" version="1.1" xmlns:xlink="http://www.w3.org/1999/xlink" xmlns:svgjs="http://svgjs.com/svgjs" width="1440" height="560" preserveAspectRatio="none" viewBox="0 0 1440 560"><g mask="url(&quot;#SvgjsMask1015&quot;)" fill="none"><path d="M318 136L-72 -254" stroke-width="8" stroke="url(#SvgjsLinearGradient1016)" stroke-linecap="round" class="TopLeft"></path><path d="M72 22L341 291" stroke-width="6" stroke="url(#SvgjsLinearGradient1016)" stroke-linecap="round" class="TopLeft"></path><path d="M677 147L417 -113" stroke-width="6" stroke="url(#SvgjsLinearGradient1016)" stroke-linecap="round" class="TopLeft"></path><path d="M447 476L199 228" stroke-width="8" stroke="url(#SvgjsLinearGradient1017)" stroke-linecap="round" class="BottomRight"></path><path d="M170 238L-248 -180" stroke-width="8" stroke="url(#SvgjsLinearGradient1017)" stroke-linecap="round" class="BottomRight"></path><path d="M1204 58L1412 266" stroke-width="10" stroke="url(#SvgjsLinearGradient1016)" stroke-linecap="round" class="TopLeft"></path><path d="M639 269L340 -30" stroke-width="6" stroke="url(#SvgjsLinearGradient1016)" stroke-linecap="round" class="TopLeft"></path><path d="M559 237L320 -2" stroke-width="8" stroke="url(#SvgjsLinearGradient1017)" stroke-linecap="round" class="BottomRight"></path><path d="M771 164L934 327" stroke-width="10" stroke="url(#SvgjsLinearGradient1017)" stroke-linecap="round" class="BottomRight"></path><path d="M180 413L341 574" stroke-width="8" stroke="url(#SvgjsLinearGradient1017)" stroke-linecap="round" class="BottomRight"></path><path d="M402 237L250 85" stroke-width="10" stroke="url(#SvgjsLinearGradient1017)" stroke-linecap="round" class="BottomRight"></path><path d="M787 505L1117 835" stroke-width="10" stroke="url(#SvgjsLinearGradient1016)" stroke-linecap="round" class="TopLeft"></path><path d="M1145 166L995 16" stroke-width="10" stroke="url(#SvgjsLinearGradient1016)" stroke-linecap="round" class="TopLeft"></path><path d="M820 375L991 546" stroke-width="8" stroke="url(#SvgjsLinearGradient1016)" stroke-linecap="round" class="TopLeft"></path><path d="M527 9L239 -279" stroke-width="8" stroke="url(#SvgjsLinearGradient1016)" stroke-linecap="round" class="TopLeft"></path><path d="M166 216L-157 -107" stroke-width="10" stroke="url(#SvgjsLinearGradient1016)" stroke-linecap="round" class="TopLeft"></path><path d="M995 497L1327 829" stroke-width="6" stroke="url(#SvgjsLinearGradient1016)" stroke-linecap="round" class="TopLeft"></path><path d="M927 533L1186 792" stroke-width="8" stroke="url(#SvgjsLinearGradient1017)" stroke-linecap="round" class="BottomRight"></path><path d="M425 365L220 160" stroke-width="10" stroke="url(#SvgjsLinearGradient1016)" stroke-linecap="round" class="TopLeft"></path><path d="M1019 379L782 142" stroke-width="8" stroke="url(#SvgjsLinearGradient1016)" stroke-linecap="round" class="TopLeft"></path><path d="M573 510L982 919" stroke-width="6" stroke="url(#SvgjsLinearGradient1017)" stroke-linecap="round" class="BottomRight"></path><path d="M1217 72L818 -327" stroke-width="8" stroke="url(#SvgjsLinearGradient1016)" stroke-linecap="round" class="TopLeft"></path><path d="M1326 436L1717 827" stroke-width="6" stroke="url(#SvgjsLinearGradient1017)" stroke-linecap="round" class="BottomRight"></path><path d="M569 81L265 -223" stroke-width="8" stroke="url(#SvgjsLinearGradient1017)" stroke-linecap="round" class="BottomRight"></path><path d="M12 405L175 568" stroke-width="6" stroke="url(#SvgjsLinearGradient1016)" stroke-linecap="round" class="TopLeft"></path><path d="M241 75L48 -118" stroke-width="6" stroke="url(#SvgjsLinearGradient1016)" stroke-linecap="round" class="TopLeft"></path><path d="M345 447L-46 56" stroke-width="6" stroke="url(#SvgjsLinearGradient1017)" stroke-linecap="round" class="BottomRight"></path><path d="M1110 33L788 -289" stroke-width="6" stroke="url(#SvgjsLinearGradient1016)" stroke-linecap="round" class="TopLeft"></path><path d="M878 220L579 -79" stroke-width="8" stroke="url(#SvgjsLinearGradient1016)" stroke-linecap="round" class="TopLeft"></path><path d="M937 149L1172 384" stroke-width="6" stroke="url(#SvgjsLinearGradient1016)" stroke-linecap="round" class="TopLeft"></path><path d="M332 483L168 319" stroke-width="8" stroke="url(#SvgjsLinearGradient1016)" stroke-linecap="round" class="TopLeft"></path><path d="M1056 93L669 -294" stroke-width="8" stroke="url(#SvgjsLinearGradient1017)" stroke-linecap="round" class="BottomRight"></path><path d="M141 390L292 541" stroke-width="10" stroke="url(#SvgjsLinearGradient1016)" stroke-linecap="round" class="TopLeft"></path><path d="M613 481L853 721" stroke-width="6" stroke="url(#SvgjsLinearGradient1016)" stroke-linecap="round" class="TopLeft"></path><path d="M399 326L11 -62" stroke-width="10" stroke="url(#SvgjsLinearGradient1017)" stroke-linecap="round" class="BottomRight"></path><path d="M42 514L-286 186" stroke-width="10" stroke="url(#SvgjsLinearGradient1016)" stroke-linecap="round" class="TopLeft"></path><path d="M331 352L148 169" stroke-width="8" stroke="url(#SvgjsLinearGradient1017)" stroke-linecap="round" class="BottomRight"></path><path d="M1321 168L1674 521" stroke-width="8" stroke="url(#SvgjsLinearGradient1016)" stroke-linecap="round" class="TopLeft"></path><path d="M873 459L589 175" stroke-width="10" stroke="url(#SvgjsLinearGradient1017)" stroke-linecap="round" class="BottomRight"></path></g><defs><mask id="SvgjsMask1015"><rect width="1440" height="560" fill="#ffffff"></rect></mask><linearGradient x1="100%" y1="100%" x2="0%" y2="0%" id="SvgjsLinearGradient1016"><stop stop-color="rgba(252, 211, 77, 0)" offset="0"></stop><stop stop-color="rgba(252, 211, 77, 1)" offset="1"></stop></linearGradient><linearGradient x1="0%" y1="0%" x2="100%" y2="100%" id="SvgjsLinearGradient1017"><stop stop-color="rgba(252, 211, 77, 0)" offset="0"></stop><stop stop-color="rgba(252, 211, 77, 1)" offset="1"></stop></linearGradient></defs></svg>