<svg xmlns="http://www.w3.org/2000/svg" version="1.1" xmlns:xlink="http://www.w3.org/1999/xlink" xmlns:svgjs="http://svgjs.com/svgjs" width="1440" height="560" preserveAspectRatio="none" viewBox="0 0 1440 560"><g mask="url(&quot;#SvgjsMask1028&quot;)" fill="none"><rect width="1440" height="560" x="0" y="0" fill="rgba(243, 244, 246, 1)"></rect><path d="M288.854,475.378C320.302,472.854,342.085,447.418,357.594,419.944C372.764,393.072,383.404,361.293,368.516,334.264C353.218,306.491,320.552,294.371,288.854,295.147C258.563,295.888,232.375,312.725,215.67,338.004C196.681,366.739,181.72,402.363,197.914,432.761C214.784,464.428,253.089,478.249,288.854,475.378" fill="rgba(252, 211, 77, 1)" class="triangle-float3"></path><path d="M770.219,435.132C793.517,436.028,819.626,434.659,832.331,415.11C845.869,394.28,841.727,366.622,828.35,345.688C815.956,326.292,793.228,317.278,770.219,317.906C748.361,318.503,728.396,329.855,717.338,348.719C706.149,367.807,704.315,391.758,715.864,410.631C726.983,428.8,748.934,434.314,770.219,435.132" fill="rgba(252, 211, 77, 1)" class="triangle-float1"></path><path d="M968.2666816411029 585.7046643728987L932.313102575566 451.5240805863705 798.1325187890377 487.47765965190735 834.0860978545746 621.6582434384356z" fill="rgba(252, 211, 77, 1)" class="triangle-float3"></path><path d="M581.78 320.76 a135.93 135.93 0 1 0 271.86 0 a135.93 135.93 0 1 0 -271.86 0z" fill="rgba(252, 211, 77, 1)" class="triangle-float3"></path><path d="M480.909,64.877C504.736,66.386,528.019,54.676,540.269,34.183C552.828,13.174,553.686,-13.893,540.213,-34.328C527.806,-53.145,503.446,-56.112,480.909,-55.849C458.982,-55.593,434.841,-52.006,423.953,-32.972C413.115,-14.025,422.302,8.543,433.283,27.408C444.174,46.119,459.302,63.509,480.909,64.877" fill="rgba(252, 211, 77, 1)" class="triangle-float3"></path><path d="M1332.428597427324 76.12098937044637L1193.376008799849 159.67221385053574 1276.9272332799383 298.7248024780107 1415.9798219074132 215.17357799792137z" fill="rgba(252, 211, 77, 1)" class="triangle-float3"></path><path d="M351.995,50.104C371.017,49.71,389.247,41.402,398.994,25.063C408.979,8.326,409.232,-12.615,399.474,-29.485C389.729,-46.333,371.457,-56.354,351.995,-56.197C332.802,-56.042,315.774,-45.142,305.822,-28.73C295.452,-11.628,291.388,9.824,301.496,27.082C311.517,44.191,332.171,50.515,351.995,50.104" fill="rgba(252, 211, 77, 1)" class="triangle-float1"></path><path d="M-23.585,184.066C-3.685,182.867,8.39,163.852,17.179,145.958C24.732,130.58,26.473,113.281,18.675,98.025C10.074,81.197,-4.7,66.926,-23.585,66.207C-43.562,65.446,-61.661,77.358,-71.815,94.578C-82.14,112.088,-83.489,133.547,-73.845,151.442C-63.688,170.287,-44.954,185.353,-23.585,184.066" fill="rgba(252, 211, 77, 1)" class="triangle-float2"></path><path d="M1512.954,352.307C1564.464,355.082,1620.459,342.174,1646.627,297.719C1673.071,252.795,1659.363,196.083,1630.448,152.708C1604.697,114.078,1559.38,97.243,1512.954,97.197C1466.434,97.151,1418.748,112.44,1395.058,152.476C1370.996,193.142,1378.091,243.848,1402.101,284.544C1425.687,324.522,1466.604,349.81,1512.954,352.307" fill="rgba(252, 211, 77, 1)" class="triangle-float1"></path></g><defs><mask id="SvgjsMask1028"><rect width="1440" height="560" fill="#ffffff"></rect></mask><style>
            @keyframes float1 {
                0%{transform: translate(0, 0)}
                50%{transform: translate(-10px, 0)}
                100%{transform: translate(0, 0)}
            }

            .triangle-float1 {
                animation: float1 5s infinite;
            }

            @keyframes float2 {
                0%{transform: translate(0, 0)}
                50%{transform: translate(-5px, -5px)}
                100%{transform: translate(0, 0)}
            }

            .triangle-float2 {
                animation: float2 4s infinite;
            }

            @keyframes float3 {
                0%{transform: translate(0, 0)}
                50%{transform: translate(0, -10px)}
                100%{transform: translate(0, 0)}
            }

            .triangle-float3 {
                animation: float3 6s infinite;
            }
        </style></defs></svg>