<svg id="visual" viewBox="0 0 900 600" width="900" height="600" xmlns="http://www.w3.org/2000/svg" xmlns:xlink="http://www.w3.org/1999/xlink" version="1.1"><rect x="0" y="0" width="900" height="600" fill="#eeeeee"></rect><defs><linearGradient id="grad1_0" x1="33.3%" y1="0%" x2="100%" y2="100%"><stop offset="20%" stop-color="#eeeeee" stop-opacity="1"></stop><stop offset="80%" stop-color="#eeeeee" stop-opacity="1"></stop></linearGradient></defs><defs><linearGradient id="grad2_0" x1="0%" y1="0%" x2="66.7%" y2="100%"><stop offset="20%" stop-color="#eeeeee" stop-opacity="1"></stop><stop offset="80%" stop-color="#eeeeee" stop-opacity="1"></stop></linearGradient></defs><g transform="translate(900, 0)"><path d="M0 405.6C-54.8 401.7 -109.7 397.9 -155.2 374.7C-200.8 351.6 -237.1 309.3 -268.7 268.7C-300.3 228.1 -327.2 189.2 -349.2 144.7C-371.3 100.2 -388.4 50.1 -405.6 0L0 0Z" fill="#ca8a04"></path></g><g transform="translate(0, 600)"><path d="M0 -405.6C54.1 -401.9 108.1 -398.2 155.2 -374.7C202.3 -351.3 242.5 -308.3 263 -263C283.6 -217.8 284.4 -170.5 304.9 -126.3C325.4 -82.1 365.5 -41 405.6 0L0 0Z" fill="#ca8a04"></path></g></svg>