<svg id="visual" viewBox="0 0 900 600" width="900" height="600" xmlns="http://www.w3.org/2000/svg" xmlns:xlink="http://www.w3.org/1999/xlink" version="1.1"><g transform="translate(-22.482484008196195 90.63540838048479)"><path d="M323.6 -362.7C433.4 -293.6 546.1 -204.9 574.1 -94.2C602 16.6 545.2 149.3 456.1 225.3C366.9 301.4 245.4 320.8 144.7 326.6C44.1 332.5 -35.7 324.8 -153.7 324.4C-271.8 323.9 -428.2 330.7 -494.1 262.8C-560.1 195 -535.6 52.4 -508.2 -87.3C-480.9 -227.1 -450.6 -364 -365.4 -437.5C-280.3 -511 -140.1 -521 -16.6 -501.2C106.9 -481.4 213.8 -431.8 323.6 -362.7" fill="#facc1f"></path></g></svg>